<mxfile host="app.diagrams.net" modified="2022-06-16T16:00:24.826Z" agent="5.0 (Macintosh; Intel Mac OS X 10_15_7) AppleWebKit/537.36 (KHTML, like Gecko) Chrome/102.0.5005.115 Safari/537.36" etag="m_nZt1F1OXqki1MRLA5h" version="20.0.1" type="github">
  <diagram id="7hqPSPKScotGYTefbX5v" name="Page-1">
    <mxGraphModel dx="1072" dy="519" grid="1" gridSize="10" guides="1" tooltips="1" connect="1" arrows="1" fold="1" page="1" pageScale="1" pageWidth="1169" pageHeight="827" math="0" shadow="0">
      <root>
        <mxCell id="0" />
        <mxCell id="1" parent="0" />
        <mxCell id="LuacaKuUAbjQaWSRHdwC-1" value="Amazon Route 53" style="sketch=0;outlineConnect=0;fontColor=#232F3E;gradientColor=none;strokeColor=#ffffff;fillColor=#232F3E;dashed=0;verticalLabelPosition=middle;verticalAlign=bottom;align=center;html=1;whiteSpace=wrap;fontSize=10;fontStyle=1;spacing=3;shape=mxgraph.aws4.productIcon;prIcon=mxgraph.aws4.route_53;" vertex="1" parent="1">
          <mxGeometry x="330" y="30" width="40" height="70" as="geometry" />
        </mxCell>
        <mxCell id="LuacaKuUAbjQaWSRHdwC-3" value="DNS registration" style="text;html=1;align=center;verticalAlign=middle;resizable=0;points=[];autosize=1;strokeColor=default;fillColor=none;" vertex="1" parent="1">
          <mxGeometry x="40" y="130" width="100" height="20" as="geometry" />
        </mxCell>
        <mxCell id="LuacaKuUAbjQaWSRHdwC-5" value="Health Checking" style="text;html=1;align=center;verticalAlign=middle;resizable=0;points=[];autosize=1;strokeColor=default;fillColor=none;" vertex="1" parent="1">
          <mxGeometry x="897" y="133.5" width="100" height="20" as="geometry" />
        </mxCell>
        <mxCell id="LuacaKuUAbjQaWSRHdwC-6" value="&lt;b&gt;resource recordsets&lt;/b&gt;" style="text;html=1;align=center;verticalAlign=middle;resizable=0;points=[];autosize=1;strokeColor=none;fillColor=none;" vertex="1" parent="1">
          <mxGeometry x="298" y="221" width="130" height="20" as="geometry" />
        </mxCell>
        <mxCell id="LuacaKuUAbjQaWSRHdwC-10" value="" style="strokeWidth=1;html=1;shape=mxgraph.flowchart.annotation_1;align=left;pointerEvents=1;fontColor=#000033;fillColor=none;strokeColor=#3399FF;" vertex="1" parent="1">
          <mxGeometry x="431" y="135" width="12" height="50" as="geometry" />
        </mxCell>
        <mxCell id="LuacaKuUAbjQaWSRHdwC-11" value="" style="strokeWidth=1;html=1;shape=mxgraph.flowchart.annotation_1;align=left;pointerEvents=1;fontColor=#000033;fillColor=none;direction=west;strokeColor=#3399FF;" vertex="1" parent="1">
          <mxGeometry x="550" y="135" width="12" height="50" as="geometry" />
        </mxCell>
        <mxCell id="LuacaKuUAbjQaWSRHdwC-12" value="how route trafic to &lt;br&gt;our domains&lt;br&gt;(manage traffic globally)" style="text;html=1;align=left;verticalAlign=middle;resizable=0;points=[];autosize=1;strokeColor=none;fillColor=none;fontSize=12;" vertex="1" parent="1">
          <mxGeometry x="431" y="133.5" width="140" height="50" as="geometry" />
        </mxCell>
        <mxCell id="LuacaKuUAbjQaWSRHdwC-22" value="&lt;font color=&quot;#00994d&quot;&gt;public hosted zones&lt;/font&gt;&lt;br&gt;----------------------------&lt;br&gt;&lt;font color=&quot;#ff3333&quot;&gt;private hosted zones&lt;/font&gt;&amp;nbsp;" style="rounded=0;whiteSpace=wrap;html=1;" vertex="1" parent="1">
          <mxGeometry x="305" y="159" width="120" height="60" as="geometry" />
        </mxCell>
        <mxCell id="LuacaKuUAbjQaWSRHdwC-23" value="register domain name" style="text;html=1;align=left;verticalAlign=middle;resizable=0;points=[];autosize=1;strokeColor=none;fillColor=none;fontSize=12;fontColor=#000033;" vertex="1" parent="1">
          <mxGeometry x="31" y="160" width="130" height="20" as="geometry" />
        </mxCell>
        <mxCell id="LuacaKuUAbjQaWSRHdwC-24" value="" style="strokeWidth=1;html=1;shape=mxgraph.flowchart.annotation_1;align=left;pointerEvents=1;fontColor=#000033;fillColor=none;strokeColor=#3399FF;" vertex="1" parent="1">
          <mxGeometry x="29" y="160" width="12" height="19" as="geometry" />
        </mxCell>
        <mxCell id="LuacaKuUAbjQaWSRHdwC-25" value="" style="strokeWidth=1;html=1;shape=mxgraph.flowchart.annotation_1;align=left;pointerEvents=1;fontColor=#000033;fillColor=none;direction=west;strokeColor=#3399FF;" vertex="1" parent="1">
          <mxGeometry x="138" y="161" width="12" height="19" as="geometry" />
        </mxCell>
        <mxCell id="LuacaKuUAbjQaWSRHdwC-26" value="&lt;span style=&quot;color: rgb(0, 0, 0);&quot;&gt;DNS Routing&lt;/span&gt;" style="rounded=0;whiteSpace=wrap;html=1;fontColor=#00994D;" vertex="1" parent="1">
          <mxGeometry x="306" y="130" width="120" height="25" as="geometry" />
        </mxCell>
        <mxCell id="LuacaKuUAbjQaWSRHdwC-32" value="Routing&amp;nbsp; Policies" style="text;html=1;align=center;verticalAlign=middle;resizable=0;points=[];autosize=1;strokeColor=none;fillColor=none;fontColor=#000033;" vertex="1" parent="1">
          <mxGeometry x="309" y="270" width="100" height="20" as="geometry" />
        </mxCell>
        <mxCell id="LuacaKuUAbjQaWSRHdwC-33" value="" style="endArrow=none;html=1;rounded=0;fontColor=#000033;" edge="1" parent="1">
          <mxGeometry width="50" height="50" relative="1" as="geometry">
            <mxPoint x="355" y="265" as="sourcePoint" />
            <mxPoint x="355" y="245" as="targetPoint" />
          </mxGeometry>
        </mxCell>
        <mxCell id="LuacaKuUAbjQaWSRHdwC-36" value="latency based &lt;br&gt;routing" style="text;html=1;align=left;verticalAlign=middle;resizable=0;points=[];autosize=1;strokeColor=none;fillColor=none;fontColor=#000033;" vertex="1" parent="1">
          <mxGeometry x="388" y="486" width="90" height="30" as="geometry" />
        </mxCell>
        <mxCell id="LuacaKuUAbjQaWSRHdwC-40" value="" style="endArrow=none;html=1;rounded=0;fontColor=#000033;entryX=0.282;entryY=1.214;entryDx=0;entryDy=0;entryPerimeter=0;" edge="1" parent="1">
          <mxGeometry width="50" height="50" relative="1" as="geometry">
            <mxPoint x="277" y="340" as="sourcePoint" />
            <mxPoint x="324.20000000000005" y="294.28" as="targetPoint" />
          </mxGeometry>
        </mxCell>
        <mxCell id="LuacaKuUAbjQaWSRHdwC-42" value="geolocation&lt;br&gt;routing" style="text;html=1;align=center;verticalAlign=middle;resizable=0;points=[];autosize=1;strokeColor=none;fillColor=none;fontColor=#000033;" vertex="1" parent="1">
          <mxGeometry x="301" y="367" width="80" height="30" as="geometry" />
        </mxCell>
        <mxCell id="LuacaKuUAbjQaWSRHdwC-43" value="geoproximity&lt;br&gt;routing" style="text;html=1;align=center;verticalAlign=middle;resizable=0;points=[];autosize=1;strokeColor=none;fillColor=none;fontColor=#000033;" vertex="1" parent="1">
          <mxGeometry x="382" y="345" width="80" height="30" as="geometry" />
        </mxCell>
        <mxCell id="LuacaKuUAbjQaWSRHdwC-44" value="" style="endArrow=none;html=1;rounded=0;fontColor=#000033;" edge="1" parent="1">
          <mxGeometry width="50" height="50" relative="1" as="geometry">
            <mxPoint x="339" y="357" as="sourcePoint" />
            <mxPoint x="339" y="293" as="targetPoint" />
          </mxGeometry>
        </mxCell>
        <mxCell id="LuacaKuUAbjQaWSRHdwC-45" value="" style="endArrow=none;html=1;rounded=0;fontColor=#000033;exitX=0.34;exitY=-0.091;exitDx=0;exitDy=0;exitPerimeter=0;" edge="1" parent="1" source="LuacaKuUAbjQaWSRHdwC-43">
          <mxGeometry width="50" height="50" relative="1" as="geometry">
            <mxPoint x="362.5" y="343" as="sourcePoint" />
            <mxPoint x="362.5" y="290" as="targetPoint" />
          </mxGeometry>
        </mxCell>
        <mxCell id="LuacaKuUAbjQaWSRHdwC-46" value="" style="endArrow=none;html=1;rounded=0;fontColor=#000033;exitX=0.336;exitY=0.018;exitDx=0;exitDy=0;exitPerimeter=0;" edge="1" parent="1" source="LuacaKuUAbjQaWSRHdwC-49">
          <mxGeometry width="50" height="50" relative="1" as="geometry">
            <mxPoint x="590" y="390" as="sourcePoint" />
            <mxPoint x="410" y="288" as="targetPoint" />
          </mxGeometry>
        </mxCell>
        <mxCell id="LuacaKuUAbjQaWSRHdwC-47" value="failover &lt;br&gt;routing" style="text;html=1;align=center;verticalAlign=middle;resizable=0;points=[];autosize=1;strokeColor=none;fillColor=none;fontColor=#000033;" vertex="1" parent="1">
          <mxGeometry x="550" y="290" width="50" height="30" as="geometry" />
        </mxCell>
        <mxCell id="LuacaKuUAbjQaWSRHdwC-49" value="simple&lt;br&gt;routing" style="text;html=1;align=center;verticalAlign=middle;resizable=0;points=[];autosize=1;strokeColor=none;fillColor=none;fontColor=#000033;" vertex="1" parent="1">
          <mxGeometry x="571" y="397" width="50" height="30" as="geometry" />
        </mxCell>
        <mxCell id="LuacaKuUAbjQaWSRHdwC-50" value="weighted&lt;br&gt;routing" style="text;html=1;align=center;verticalAlign=middle;resizable=0;points=[];autosize=1;strokeColor=none;fillColor=none;fontColor=#000033;" vertex="1" parent="1">
          <mxGeometry x="238" y="345" width="60" height="30" as="geometry" />
        </mxCell>
        <mxCell id="LuacaKuUAbjQaWSRHdwC-52" value="" style="endArrow=none;html=1;rounded=0;fontColor=#000033;entryX=1.049;entryY=0.7;entryDx=0;entryDy=0;entryPerimeter=0;" edge="1" parent="1" target="LuacaKuUAbjQaWSRHdwC-32">
          <mxGeometry width="50" height="50" relative="1" as="geometry">
            <mxPoint x="550" y="300" as="sourcePoint" />
            <mxPoint x="488.0999999999999" y="286.72" as="targetPoint" />
          </mxGeometry>
        </mxCell>
        <mxCell id="LuacaKuUAbjQaWSRHdwC-53" value="" style="endArrow=none;html=1;rounded=0;fontColor=#000033;exitX=0.258;exitY=-0.085;exitDx=0;exitDy=0;exitPerimeter=0;" edge="1" parent="1" source="LuacaKuUAbjQaWSRHdwC-36">
          <mxGeometry width="50" height="50" relative="1" as="geometry">
            <mxPoint x="420" y="440" as="sourcePoint" />
            <mxPoint x="352" y="293" as="targetPoint" />
          </mxGeometry>
        </mxCell>
        <mxCell id="LuacaKuUAbjQaWSRHdwC-54" value="" style="endArrow=none;html=1;rounded=0;fontColor=#000033;exitX=0.515;exitY=-0.112;exitDx=0;exitDy=0;exitPerimeter=0;" edge="1" parent="1" source="LuacaKuUAbjQaWSRHdwC-55">
          <mxGeometry width="50" height="50" relative="1" as="geometry">
            <mxPoint x="260" y="410" as="sourcePoint" />
            <mxPoint x="260" y="375" as="targetPoint" />
          </mxGeometry>
        </mxCell>
        <mxCell id="LuacaKuUAbjQaWSRHdwC-55" value="Single domain/&lt;br&gt;subdomain" style="text;html=1;align=left;verticalAlign=middle;resizable=0;points=[];autosize=1;strokeColor=default;fillColor=none;fontColor=#000033;" vertex="1" parent="1">
          <mxGeometry x="189" y="413" width="90" height="30" as="geometry" />
        </mxCell>
        <mxCell id="LuacaKuUAbjQaWSRHdwC-56" value="" style="endArrow=none;html=1;rounded=0;fontColor=#000033;" edge="1" parent="1">
          <mxGeometry width="50" height="50" relative="1" as="geometry">
            <mxPoint x="220" y="470" as="sourcePoint" />
            <mxPoint x="220" y="445" as="targetPoint" />
          </mxGeometry>
        </mxCell>
        <mxCell id="LuacaKuUAbjQaWSRHdwC-57" value="route traffic to &lt;br&gt;multiples resources" style="text;html=1;align=center;verticalAlign=middle;resizable=0;points=[];autosize=1;strokeColor=none;fillColor=none;fontColor=#000033;fontStyle=1" vertex="1" parent="1">
          <mxGeometry x="162" y="469" width="130" height="30" as="geometry" />
        </mxCell>
        <mxCell id="LuacaKuUAbjQaWSRHdwC-58" value="" style="rounded=1;whiteSpace=wrap;html=1;fontColor=#000033;strokeColor=default;" vertex="1" parent="1">
          <mxGeometry x="170" y="502" width="130" height="50" as="geometry" />
        </mxCell>
        <mxCell id="LuacaKuUAbjQaWSRHdwC-59" value="&lt;div style=&quot;text-align: left;&quot;&gt;&lt;ul&gt;&lt;li&gt;&lt;span style=&quot;background-color: initial;&quot;&gt;load balancing&lt;/span&gt;&lt;/li&gt;&lt;li&gt;&lt;span style=&quot;background-color: initial;&quot;&gt;testing new versions&lt;/span&gt;&lt;/li&gt;&lt;/ul&gt;&lt;/div&gt;" style="text;html=1;align=center;verticalAlign=middle;resizable=0;points=[];autosize=1;strokeColor=none;fillColor=none;fontColor=#000033;" vertex="1" parent="1">
          <mxGeometry x="143" y="505" width="160" height="60" as="geometry" />
        </mxCell>
        <mxCell id="LuacaKuUAbjQaWSRHdwC-60" value="use cases:" style="text;html=1;align=center;verticalAlign=middle;resizable=0;points=[];autosize=1;strokeColor=none;fillColor=none;fontColor=#000033;" vertex="1" parent="1">
          <mxGeometry x="171" y="504" width="70" height="20" as="geometry" />
        </mxCell>
        <mxCell id="LuacaKuUAbjQaWSRHdwC-62" value="Based on &lt;br&gt;geographic&amp;nbsp;&lt;br&gt;locations &lt;br&gt;of your users" style="text;html=1;align=left;verticalAlign=middle;resizable=0;points=[];autosize=1;strokeColor=default;fillColor=none;fontColor=#000033;" vertex="1" parent="1">
          <mxGeometry x="301" y="410" width="80" height="60" as="geometry" />
        </mxCell>
        <mxCell id="LuacaKuUAbjQaWSRHdwC-63" value="" style="endArrow=none;html=1;rounded=0;fontColor=#000033;" edge="1" parent="1">
          <mxGeometry width="50" height="50" relative="1" as="geometry">
            <mxPoint x="340" y="407" as="sourcePoint" />
            <mxPoint x="340" y="395" as="targetPoint" />
          </mxGeometry>
        </mxCell>
        <mxCell id="LuacaKuUAbjQaWSRHdwC-64" value="based on geografic &lt;br&gt;locations of users &lt;br&gt;and resources&amp;nbsp;" style="text;html=1;align=left;verticalAlign=middle;resizable=0;points=[];autosize=1;strokeColor=default;fillColor=none;fontColor=#000033;" vertex="1" parent="1">
          <mxGeometry x="414" y="403" width="120" height="50" as="geometry" />
        </mxCell>
        <mxCell id="LuacaKuUAbjQaWSRHdwC-65" value="" style="endArrow=none;html=1;rounded=0;fontColor=#000033;" edge="1" parent="1">
          <mxGeometry width="50" height="50" relative="1" as="geometry">
            <mxPoint x="435" y="399" as="sourcePoint" />
            <mxPoint x="435" y="379" as="targetPoint" />
          </mxGeometry>
        </mxCell>
        <mxCell id="LuacaKuUAbjQaWSRHdwC-66" value="trafic --&amp;gt; single resource" style="text;html=1;align=center;verticalAlign=middle;resizable=0;points=[];autosize=1;strokeColor=default;fillColor=none;fontColor=#000033;" vertex="1" parent="1">
          <mxGeometry x="555" y="450" width="140" height="20" as="geometry" />
        </mxCell>
        <mxCell id="LuacaKuUAbjQaWSRHdwC-68" value="" style="endArrow=none;html=1;rounded=0;fontColor=#000033;" edge="1" parent="1">
          <mxGeometry width="50" height="50" relative="1" as="geometry">
            <mxPoint x="597" y="450" as="sourcePoint" />
            <mxPoint x="597" y="430" as="targetPoint" />
          </mxGeometry>
        </mxCell>
        <mxCell id="LuacaKuUAbjQaWSRHdwC-69" value="trafic to health&lt;br&gt;resources" style="text;html=1;align=left;verticalAlign=middle;resizable=0;points=[];autosize=1;strokeColor=default;fillColor=none;fontColor=#000033;" vertex="1" parent="1">
          <mxGeometry x="605" y="345" width="90" height="30" as="geometry" />
        </mxCell>
        <mxCell id="LuacaKuUAbjQaWSRHdwC-70" value="traffic to differents &lt;br&gt;resources when &lt;br&gt;resource is unhealthy" style="text;html=1;align=left;verticalAlign=middle;resizable=0;points=[];autosize=1;strokeColor=default;fillColor=none;fontColor=#000033;" vertex="1" parent="1">
          <mxGeometry x="640" y="275" width="130" height="50" as="geometry" />
        </mxCell>
        <mxCell id="LuacaKuUAbjQaWSRHdwC-71" value="" style="endArrow=none;html=1;rounded=0;fontColor=#000033;exitX=0.003;exitY=0.535;exitDx=0;exitDy=0;exitPerimeter=0;" edge="1" parent="1" source="LuacaKuUAbjQaWSRHdwC-70">
          <mxGeometry width="50" height="50" relative="1" as="geometry">
            <mxPoint x="630" y="301" as="sourcePoint" />
            <mxPoint x="602" y="301" as="targetPoint" />
          </mxGeometry>
        </mxCell>
        <mxCell id="LuacaKuUAbjQaWSRHdwC-72" value="" style="endArrow=none;html=1;rounded=0;fontColor=#000033;exitX=-0.04;exitY=0.191;exitDx=0;exitDy=0;exitPerimeter=0;" edge="1" parent="1">
          <mxGeometry width="50" height="50" relative="1" as="geometry">
            <mxPoint x="605.4000000000001" y="343.73" as="sourcePoint" />
            <mxPoint x="595" y="320" as="targetPoint" />
          </mxGeometry>
        </mxCell>
        <mxCell id="LuacaKuUAbjQaWSRHdwC-74" value="" style="strokeWidth=1;html=1;shape=mxgraph.flowchart.annotation_1;align=left;pointerEvents=1;fontColor=#000033;fillColor=none;strokeColor=#3399FF;" vertex="1" parent="1">
          <mxGeometry x="807" y="134" width="12" height="39" as="geometry" />
        </mxCell>
        <mxCell id="LuacaKuUAbjQaWSRHdwC-75" value="" style="strokeWidth=1;html=1;shape=mxgraph.flowchart.annotation_1;align=left;pointerEvents=1;fontColor=#000033;fillColor=none;direction=west;strokeColor=#3399FF;" vertex="1" parent="1">
          <mxGeometry x="879" y="134" width="12" height="39" as="geometry" />
        </mxCell>
        <mxCell id="LuacaKuUAbjQaWSRHdwC-76" value="Configure DNS &lt;br&gt;health check" style="text;html=1;align=left;verticalAlign=middle;resizable=0;points=[];autosize=1;strokeColor=none;fillColor=none;fontSize=12;" vertex="1" parent="1">
          <mxGeometry x="807" y="138.5" width="100" height="30" as="geometry" />
        </mxCell>
        <mxCell id="LuacaKuUAbjQaWSRHdwC-77" value="" style="endArrow=none;html=1;rounded=0;fontColor=#000033;" edge="1" parent="1">
          <mxGeometry width="50" height="50" relative="1" as="geometry">
            <mxPoint x="880" y="230" as="sourcePoint" />
            <mxPoint x="927" y="159" as="targetPoint" />
          </mxGeometry>
        </mxCell>
        <mxCell id="LuacaKuUAbjQaWSRHdwC-78" value="" style="endArrow=none;html=1;rounded=0;fontColor=#000033;" edge="1" parent="1">
          <mxGeometry width="50" height="50" relative="1" as="geometry">
            <mxPoint x="1010" y="230" as="sourcePoint" />
            <mxPoint x="960" y="159" as="targetPoint" />
          </mxGeometry>
        </mxCell>
        <mxCell id="LuacaKuUAbjQaWSRHdwC-79" value="Monitor" style="text;html=1;align=center;verticalAlign=middle;resizable=0;points=[];autosize=1;strokeColor=none;fillColor=none;fontColor=#000033;" vertex="1" parent="1">
          <mxGeometry x="848" y="234" width="60" height="20" as="geometry" />
        </mxCell>
        <mxCell id="LuacaKuUAbjQaWSRHdwC-80" value="Control" style="text;html=1;align=center;verticalAlign=middle;resizable=0;points=[];autosize=1;strokeColor=none;fillColor=none;fontColor=#000033;" vertex="1" parent="1">
          <mxGeometry x="987" y="235" width="50" height="20" as="geometry" />
        </mxCell>
        <mxCell id="LuacaKuUAbjQaWSRHdwC-81" value="Aplication&#39; ability&lt;br&gt;to recovery&lt;br&gt;from failures" style="text;html=1;align=center;verticalAlign=middle;resizable=0;points=[];autosize=1;strokeColor=#FF3333;fillColor=none;fontColor=#000033;" vertex="1" parent="1">
          <mxGeometry x="829" y="272" width="100" height="50" as="geometry" />
        </mxCell>
        <mxCell id="LuacaKuUAbjQaWSRHdwC-82" value="Application&lt;br&gt;recovery" style="text;html=1;align=center;verticalAlign=middle;resizable=0;points=[];autosize=1;strokeColor=#FF3333;fillColor=none;fontColor=#000033;" vertex="1" parent="1">
          <mxGeometry x="979" y="274" width="70" height="30" as="geometry" />
        </mxCell>
        <mxCell id="LuacaKuUAbjQaWSRHdwC-83" value="" style="endArrow=none;html=1;rounded=0;fontColor=#000033;" edge="1" parent="1">
          <mxGeometry width="50" height="50" relative="1" as="geometry">
            <mxPoint x="879" y="271" as="sourcePoint" />
            <mxPoint x="879" y="251" as="targetPoint" />
          </mxGeometry>
        </mxCell>
        <mxCell id="LuacaKuUAbjQaWSRHdwC-84" value="" style="endArrow=none;html=1;rounded=0;fontColor=#000033;" edge="1" parent="1">
          <mxGeometry width="50" height="50" relative="1" as="geometry">
            <mxPoint x="1011" y="272" as="sourcePoint" />
            <mxPoint x="1011" y="252" as="targetPoint" />
          </mxGeometry>
        </mxCell>
      </root>
    </mxGraphModel>
  </diagram>
</mxfile>
